<svg xmlns="http://www.w3.org/2000/svg" xmlns:xlink="http://www.w3.org/1999/xlink" version="1.1" x="0px" y="0px" viewBox="0 0 100 125" style="enable-background:new 0 0 100 100;" xml:space="preserve"><g><path d="M89,7H33.9C31.1,7,29,9.2,29,12v21.3c0,2.8,2.2,5,5,5s5-2.2,5-5V17h45v66H39V66.7c0-2.8-2.2-5-5-5   s-5,2.2-5,5V88c0,2.8,2.1,5,4.9,5H89c2.8,0,5-2.2,5-5V12C94,9.2,91.8,7,89,7z"/><path d="M50.8,62.2c-0.9,0.9-1.5,2.2-1.4,3.5c0,1.3,0.5,2.6,1.5,3.5c0.9,0.9,2.2,1.4,3.5,1.4c1.3,0,2.6-0.5,3.6-1.5   l15.7-15.8c1.9-1.9,1.9-5.1,0-7L57.9,30.5C57,29.6,55.7,29,54.4,29c-1.3,0-2.6,0.5-3.5,1.4c-0.9,0.9-1.5,2.2-1.5,3.5   s0.5,2.6,1.4,3.5l7.3,7.3L11,45c-2.8,0-5,2.3-5,5c0,2.8,2.3,5,5,5l47-0.1L50.8,62.2z"/></g><text x="0" y="115" fill="#000000" font-size="5px" font-weight="bold" font-family="'Helvetica Neue', Helvetica, Arial-Unicode, Arial, Sans-serif">Created by Noah</text><text x="0" y="120" fill="#000000" font-size="5px" font-weight="bold" font-family="'Helvetica Neue', Helvetica, Arial-Unicode, Arial, Sans-serif">from the Noun Project</text></svg>